<svg version="1.1" xmlns="http://www.w3.org/2000/svg" xmlns:xlink="http://www.w3.org/1999/xlink" width="800" height="600"><g fill="none" fill-rule="nonzero" stroke="none" stroke-width="1" stroke-linecap="butt" stroke-linejoin="miter" stroke-miterlimit="10" stroke-dasharray="" stroke-dashoffset="0" font-family="none" font-weight="none" font-size="none" text-anchor="none" style="mix-blend-mode: normal"><rect x="0" y="0" width="800" height="600"/></g><g fill="none" fill-rule="nonzero" stroke="#ffffff" stroke-width="8" stroke-linecap="round" stroke-linejoin="miter" stroke-miterlimit="10" stroke-dasharray="" stroke-dashoffset="0" font-family="none" font-weight="none" font-size="none" text-anchor="none" style="mix-blend-mode: normal"><g id="Snowflake"><g><line x1="400" y1="300" x2="400" y2="500"/><polyline points="351.47002,357.59832 400,309.06835 448.52998,357.59832"/><polyline points="360.96572,386.18381 400,347.14953 439.03428,386.18381"/><polyline points="362.4456,418.7772 400,381.2228 437.5544,418.7772"/><polyline points="373.87522,446.39572 400,420.27095 426.12478,446.39572"/><polyline points="356.7508,488.29127 400,445.04207 443.2492,488.29127"/></g><g><line x1="400" y1="300" x2="226.79492" y2="400"/><polyline points="325.8534,286.77097 392.14658,304.53417 374.38338,370.82735"/><polyline points="305.8455,309.28723 359.16731,323.57476 344.87977,376.89658"/><polyline points="278.35873,326.86554 329.65899,340.6114 315.91313,391.91166"/><polyline points="260.1552,350.57314 295.84231,360.13547 286.27997,395.82258"/><polyline points="215.31038,356.69073 274.38989,372.52103 258.55958,431.60054"/></g><g><line x1="400" y1="300" x2="226.79492" y2="200"/><polyline points="374.38338,229.17265 392.14658,295.46583 325.8534,313.22903"/><polyline points="344.87977,223.10342 359.16731,276.42524 305.8455,290.71277"/><polyline points="315.91313,208.08834 329.65899,259.3886 278.35873,273.13446"/><polyline points="286.27997,204.17742 295.84231,239.86453 260.1552,249.42686"/><polyline points="258.55958,168.39946 274.38989,227.47897 215.31038,243.30927"/></g><g><line x1="400" y1="300" x2="400" y2="100"/><polyline points="448.52998,242.40168 400,290.93165 351.47002,242.40168"/><polyline points="439.03428,213.81619 400,252.85047 360.96572,213.81619"/><polyline points="437.5544,181.2228 400,218.7772 362.4456,181.2228"/><polyline points="426.12478,153.60428 400,179.72905 373.87522,153.60428"/><polyline points="443.2492,111.70873 400,154.95793 356.7508,111.70873"/></g><g><line x1="400" y1="300" x2="573.20508" y2="200"/><polyline points="474.1466,313.22903 407.85342,295.46583 425.61662,229.17265"/><polyline points="494.1545,290.71277 440.83269,276.42524 455.12023,223.10342"/><polyline points="521.64127,273.13446 470.34101,259.3886 484.08687,208.08834"/><polyline points="539.8448,249.42686 504.15769,239.86453 513.72003,204.17742"/><polyline points="584.68962,243.30927 525.61011,227.47897 541.44042,168.39946"/></g><g><line x1="400" y1="300" x2="573.20508" y2="400"/><polyline points="425.61662,370.82735 407.85342,304.53417 474.1466,286.77097"/><polyline points="455.12023,376.89658 440.83269,323.57476 494.1545,309.28723"/><polyline points="484.08687,391.91166 470.34101,340.6114 521.64127,326.86554"/><polyline points="513.72003,395.82258 504.15769,360.13547 539.8448,350.57314"/><polyline points="541.44042,431.60054 525.61011,372.52103 584.68962,356.69073"/></g></g></g><g fill="none" fill-rule="nonzero" stroke="none" stroke-width="1" stroke-linecap="butt" stroke-linejoin="miter" stroke-miterlimit="10" stroke-dasharray="" stroke-dashoffset="0" font-family="sans-serif" font-weight="normal" font-size="12" text-anchor="start" style="mix-blend-mode: normal"/></svg>