<svg version="1.1" xmlns="http://www.w3.org/2000/svg" xmlns:xlink="http://www.w3.org/1999/xlink" width="800" height="600"><g fill="none" fill-rule="nonzero" stroke="none" stroke-width="1" stroke-linecap="butt" stroke-linejoin="miter" stroke-miterlimit="10" stroke-dasharray="" stroke-dashoffset="0" font-family="none" font-weight="none" font-size="none" text-anchor="none" style="mix-blend-mode: normal"><rect x="0" y="0" width="800" height="600"/></g><g fill="none" fill-rule="nonzero" stroke="#ffffff" stroke-width="8" stroke-linecap="round" stroke-linejoin="miter" stroke-miterlimit="10" stroke-dasharray="" stroke-dashoffset="0" font-family="none" font-weight="none" font-size="none" text-anchor="none" style="mix-blend-mode: normal"><g id="Snowflake"><g><line x1="400" y1="300" x2="400" y2="500"/><polyline points="356.10269,355.28199 400,311.38468 443.89731,355.28199"/><polyline points="347.86125,392.73604 400,340.59729 452.13875,392.73604"/><polyline points="348.40791,425.79605 400,374.20395 451.59209,425.79605"/><polyline points="345.83491,460.41588 400,406.25079 454.16509,460.41588"/><polyline points="397.68967,467.82183 400,465.5115 402.31033,467.82183"/></g><g><line x1="400" y1="300" x2="226.79492" y2="400"/><polyline points="330.17574,289.62481 390.14058,305.69234 374.07305,365.65718"/><polyline points="293.61886,301.21454 364.84171,320.29865 345.75761,391.5215"/><polyline points="265.26138,318.21796 335.73749,337.10198 316.85347,407.57809"/><polyline points="233.99323,333.29959 307.98412,353.12539 288.15832,427.11628"/><polyline points="253.50686,381.91011 256.66284,382.75575 255.8172,385.91172"/></g><g><line x1="400" y1="300" x2="226.79492" y2="200"/><polyline points="374.07305,234.34282 390.14058,294.30766 330.17574,310.37519"/><polyline points="345.75761,208.4785 364.84171,279.70135 293.61886,298.78546"/><polyline points="316.85347,192.42191 335.73749,262.89802 265.26138,281.78204"/><polyline points="288.15832,172.88372 307.98412,246.87461 233.99323,266.70041"/><polyline points="255.8172,214.08828 256.66284,217.24425 253.50686,218.08989"/></g><g><line x1="400" y1="300" x2="400" y2="100"/><polyline points="443.89731,244.71801 400,288.61532 356.10269,244.71801"/><polyline points="452.13875,207.26396 400,259.40271 347.86125,207.26396"/><polyline points="451.59209,174.20395 400,225.79605 348.40791,174.20395"/><polyline points="454.16509,139.58412 400,193.74921 345.83491,139.58412"/><polyline points="402.31033,132.17817 400,134.4885 397.68967,132.17817"/></g><g><line x1="400" y1="300" x2="573.20508" y2="200"/><polyline points="469.82426,310.37519 409.85942,294.30766 425.92695,234.34282"/><polyline points="506.38114,298.78546 435.15829,279.70135 454.24239,208.4785"/><polyline points="534.73862,281.78204 464.26251,262.89802 483.14653,192.42191"/><polyline points="566.00677,266.70041 492.01588,246.87461 511.84168,172.88372"/><polyline points="546.49314,218.08989 543.33716,217.24425 544.1828,214.08828"/></g><g><line x1="400" y1="300" x2="573.20508" y2="400"/><polyline points="425.92695,365.65718 409.85942,305.69234 469.82426,289.62481"/><polyline points="454.24239,391.5215 435.15829,320.29865 506.38114,301.21454"/><polyline points="483.14653,407.57809 464.26251,337.10198 534.73862,318.21796"/><polyline points="511.84168,427.11628 492.01588,353.12539 566.00677,333.29959"/><polyline points="544.1828,385.91172 543.33716,382.75575 546.49314,381.91011"/></g></g></g><g fill="none" fill-rule="nonzero" stroke="none" stroke-width="1" stroke-linecap="butt" stroke-linejoin="miter" stroke-miterlimit="10" stroke-dasharray="" stroke-dashoffset="0" font-family="sans-serif" font-weight="normal" font-size="12" text-anchor="start" style="mix-blend-mode: normal"/></svg>