<svg version="1.1" xmlns="http://www.w3.org/2000/svg" xmlns:xlink="http://www.w3.org/1999/xlink" width="800" height="600"><g fill="#181919" fill-rule="nonzero" stroke="none" stroke-width="1" stroke-linecap="butt" stroke-linejoin="miter" stroke-miterlimit="10" stroke-dasharray="" stroke-dashoffset="0" font-family="none" font-weight="none" font-size="none" text-anchor="none" style="mix-blend-mode: normal"><rect x="0" y="0" width="800" height="600"/></g><g fill="none" fill-rule="nonzero" stroke="#ffffff" stroke-width="8" stroke-linecap="round" stroke-linejoin="miter" stroke-miterlimit="10" stroke-dasharray="" stroke-dashoffset="0" font-family="none" font-weight="none" font-size="none" text-anchor="none" style="mix-blend-mode: normal"><g id="Snowflake"><g><line x1="400" y1="300" x2="400" y2="500"/><polyline points="336.49982,365.08342 400,301.58324 463.50018,365.08342"/><polyline points="347.0163,393.15852 400,340.17482 452.9837,393.15852"/><polyline points="368.74141,415.6293 400,384.3707 431.25859,415.6293"/><polyline points="384.20383,441.23142 400,425.43525 415.79617,441.23142"/><polyline points="359.80926,486.76204 400,446.57129 440.19074,486.76204"/></g><g><line x1="400" y1="300" x2="226.79492" y2="400"/><polyline points="311.88602,277.54894 398.62887,300.79162 375.38619,387.53448"/><polyline points="292.83051,300.69403 365.20759,320.08741 345.81421,392.46449"/><polyline points="284.2328,330.74391 326.93283,342.18535 315.49139,384.88538"/><polyline points="269.79192,356.93583 291.36989,362.71763 285.58809,384.29559"/><polyline points="218.16396,358.57481 273.06554,373.28565 258.3547,428.18722"/></g><g><line x1="400" y1="300" x2="226.79492" y2="200"/><polyline points="375.38619,212.46552 398.62887,299.20838 311.88602,322.45106"/><polyline points="345.81421,207.53551 365.20759,279.91259 292.83051,299.30597"/><polyline points="315.49139,215.11462 326.93283,257.81465 284.2328,269.25609"/><polyline points="285.58809,215.70441 291.36989,237.28237 269.79192,243.06417"/><polyline points="258.3547,171.81278 273.06554,226.71435 218.16396,241.42519"/></g><g><line x1="400" y1="300" x2="400" y2="100"/><polyline points="463.50018,234.91658 400,298.41676 336.49982,234.91658"/><polyline points="452.9837,206.84148 400,259.82518 347.0163,206.84148"/><polyline points="431.25859,184.3707 400,215.6293 368.74141,184.3707"/><polyline points="415.79617,158.76858 400,174.56475 384.20383,158.76858"/><polyline points="440.19074,113.23796 400,153.42871 359.80926,113.23796"/></g><g><line x1="400" y1="300" x2="573.20508" y2="200"/><polyline points="488.11398,322.45106 401.37113,299.20838 424.61381,212.46552"/><polyline points="507.16949,299.30597 434.79241,279.91259 454.18579,207.53551"/><polyline points="515.7672,269.25609 473.06717,257.81465 484.50861,215.11462"/><polyline points="530.20808,243.06417 508.63011,237.28237 514.41191,215.70441"/><polyline points="581.83604,241.42519 526.93446,226.71435 541.6453,171.81278"/></g><g><line x1="400" y1="300" x2="573.20508" y2="400"/><polyline points="424.61381,387.53448 401.37113,300.79162 488.11398,277.54894"/><polyline points="454.18579,392.46449 434.79241,320.08741 507.16949,300.69403"/><polyline points="484.50861,384.88538 473.06717,342.18535 515.7672,330.74391"/><polyline points="514.41191,384.29559 508.63011,362.71763 530.20808,356.93583"/><polyline points="541.6453,428.18722 526.93446,373.28565 581.83604,358.57481"/></g></g></g><g fill="none" fill-rule="nonzero" stroke="none" stroke-width="1" stroke-linecap="butt" stroke-linejoin="miter" stroke-miterlimit="10" stroke-dasharray="" stroke-dashoffset="0" font-family="sans-serif" font-weight="normal" font-size="12" text-anchor="start" style="mix-blend-mode: normal"/></svg>