<svg version="1.1" xmlns="http://www.w3.org/2000/svg" xmlns:xlink="http://www.w3.org/1999/xlink" width="800" height="600"><g fill="none" fill-rule="nonzero" stroke="none" stroke-width="1" stroke-linecap="butt" stroke-linejoin="miter" stroke-miterlimit="10" stroke-dasharray="" stroke-dashoffset="0" font-family="none" font-weight="none" font-size="none" text-anchor="none" style="mix-blend-mode: normal"><rect x="0" y="0" width="800" height="600"/></g><g fill="none" fill-rule="nonzero" stroke="#ffffff" stroke-width="8" stroke-linecap="round" stroke-linejoin="miter" stroke-miterlimit="10" stroke-dasharray="" stroke-dashoffset="0" font-family="none" font-weight="none" font-size="none" text-anchor="none" style="mix-blend-mode: normal"><g id="Snowflake"><g><line x1="400" y1="300" x2="400" y2="500"/><polyline points="334.48122,372.75939 400,307.24061 465.51878,372.75939"/><polyline points="380.07043,389.96478 400,370.03522 419.92957,389.96478"/><polyline points="349.40068,445.29966 400,394.70034 450.59932,445.29966"/><polyline points="360.74118,479.62941 400,440.37059 439.25882,479.62941"/></g><g><line x1="400" y1="300" x2="226.79492" y2="400"/><polyline points="304.22913,279.63876 393.72945,303.6203 369.74791,393.12063"/><polyline points="312.12343,327.72288 339.34772,335.01761 332.053,362.24191"/><polyline points="248.86714,328.82953 317.9871,347.35017 299.46646,416.47013"/><polyline points="224.80696,355.81557 278.4355,370.18529 264.06578,423.81384"/></g><g><line x1="400" y1="300" x2="226.79492" y2="200"/><polyline points="369.74791,206.87937 393.72945,296.3797 304.22913,320.36124"/><polyline points="332.053,237.75809 339.34772,264.98239 312.12343,272.27712"/><polyline points="299.46646,183.52987 317.9871,252.64983 248.86714,271.17047"/><polyline points="264.06578,176.18616 278.4355,229.81471 224.80696,244.18443"/></g><g><line x1="400" y1="300" x2="400" y2="100"/><polyline points="465.51878,227.24061 400,292.75939 334.48122,227.24061"/><polyline points="419.92957,210.03522 400,229.96478 380.07043,210.03522"/><polyline points="450.59932,154.70034 400,205.29966 349.40068,154.70034"/><polyline points="439.25882,120.37059 400,159.62941 360.74118,120.37059"/></g><g><line x1="400" y1="300" x2="573.20508" y2="200"/><polyline points="495.77087,320.36124 406.27055,296.3797 430.25209,206.87937"/><polyline points="487.87657,272.27712 460.65228,264.98239 467.947,237.75809"/><polyline points="551.13286,271.17047 482.0129,252.64983 500.53354,183.52987"/><polyline points="575.19304,244.18443 521.5645,229.81471 535.93422,176.18616"/></g><g><line x1="400" y1="300" x2="573.20508" y2="400"/><polyline points="430.25209,393.12063 406.27055,303.6203 495.77087,279.63876"/><polyline points="467.947,362.24191 460.65228,335.01761 487.87657,327.72288"/><polyline points="500.53354,416.47013 482.0129,347.35017 551.13286,328.82953"/><polyline points="535.93422,423.81384 521.5645,370.18529 575.19304,355.81557"/></g></g></g><g fill="none" fill-rule="nonzero" stroke="none" stroke-width="1" stroke-linecap="butt" stroke-linejoin="miter" stroke-miterlimit="10" stroke-dasharray="" stroke-dashoffset="0" font-family="sans-serif" font-weight="normal" font-size="12" text-anchor="start" style="mix-blend-mode: normal"/></svg>