<svg version="1.1" xmlns="http://www.w3.org/2000/svg" xmlns:xlink="http://www.w3.org/1999/xlink" width="800" height="600"><g fill="#181919" fill-rule="nonzero" stroke="none" stroke-width="1" stroke-linecap="butt" stroke-linejoin="miter" stroke-miterlimit="10" stroke-dasharray="" stroke-dashoffset="0" font-family="none" font-weight="none" font-size="none" text-anchor="none" style="mix-blend-mode: normal"><rect x="0" y="0" width="800" height="600"/></g><g fill="none" fill-rule="nonzero" stroke="#ffffff" stroke-width="12" stroke-linecap="round" stroke-linejoin="miter" stroke-miterlimit="10" stroke-dasharray="" stroke-dashoffset="0" font-family="none" font-weight="none" font-size="none" text-anchor="none" style="mix-blend-mode: normal"><g id="Snowflake"><g><line x1="400" y1="300" x2="400" y2="500"/><polyline points="364.79477,357.60262 400,322.39738 435.20523,357.60262"/><polyline points="350.5402,404.7299 400,355.2701 449.4598,404.7299"/><polyline points="365.45725,437.27137 400,402.72863 434.54275,437.27137"/><polyline points="346.86008,486.56996 400,433.43004 453.13992,486.56996"/></g><g><line x1="400" y1="300" x2="226.79492" y2="400"/><polyline points="332.51205,298.31268 380.6033,311.19869 367.71729,359.28993"/><polyline points="284.57135,309.53151 352.13469,327.63505 334.03115,395.19839"/><polyline points="263.84813,338.72079 311.0344,351.36431 298.39088,398.55059"/><polyline points="211.85571,347.26446 284.4462,366.71502 264.99564,439.30551"/></g><g><line x1="400" y1="300" x2="226.79492" y2="200"/><polyline points="367.71729,240.71007 380.6033,288.80131 332.51205,301.68732"/><polyline points="334.03115,204.80161 352.13469,272.36495 284.57135,290.46849"/><polyline points="298.39088,201.44941 311.0344,248.63569 263.84813,261.27921"/><polyline points="264.99564,160.69449 284.4462,233.28498 211.85571,252.73554"/></g><g><line x1="400" y1="300" x2="400" y2="100"/><polyline points="435.20523,242.39738 400,277.60262 364.79477,242.39738"/><polyline points="449.4598,195.2701 400,244.7299 350.5402,195.2701"/><polyline points="434.54275,162.72863 400,197.27137 365.45725,162.72863"/><polyline points="453.13992,113.43004 400,166.56996 346.86008,113.43004"/></g><g><line x1="400" y1="300" x2="573.20508" y2="200"/><polyline points="467.48795,301.68732 419.3967,288.80131 432.28271,240.71007"/><polyline points="515.42865,290.46849 447.86531,272.36495 465.96885,204.80161"/><polyline points="536.15187,261.27921 488.9656,248.63569 501.60912,201.44941"/><polyline points="588.14429,252.73554 515.5538,233.28498 535.00436,160.69449"/></g><g><line x1="400" y1="300" x2="573.20508" y2="400"/><polyline points="432.28271,359.28993 419.3967,311.19869 467.48795,298.31268"/><polyline points="465.96885,395.19839 447.86531,327.63505 515.42865,309.53151"/><polyline points="501.60912,398.55059 488.9656,351.36431 536.15187,338.72079"/><polyline points="535.00436,439.30551 515.5538,366.71502 588.14429,347.26446"/></g></g></g><g fill="none" fill-rule="nonzero" stroke="none" stroke-width="1" stroke-linecap="butt" stroke-linejoin="miter" stroke-miterlimit="10" stroke-dasharray="" stroke-dashoffset="0" font-family="sans-serif" font-weight="normal" font-size="12" text-anchor="start" style="mix-blend-mode: normal"/></svg>