<svg version="1.1" xmlns="http://www.w3.org/2000/svg" xmlns:xlink="http://www.w3.org/1999/xlink" width="800" height="600"><g fill="none" fill-rule="nonzero" stroke="none" stroke-width="1" stroke-linecap="butt" stroke-linejoin="miter" stroke-miterlimit="10" stroke-dasharray="" stroke-dashoffset="0" font-family="none" font-weight="none" font-size="none" text-anchor="none" style="mix-blend-mode: normal"><rect x="0" y="0" width="800" height="600"/></g><g fill="none" fill-rule="nonzero" stroke="#ffffff" stroke-width="8" stroke-linecap="round" stroke-linejoin="miter" stroke-miterlimit="10" stroke-dasharray="" stroke-dashoffset="0" font-family="none" font-weight="none" font-size="none" text-anchor="none" style="mix-blend-mode: normal"><g id="Snowflake"><g><line x1="400" y1="300" x2="400" y2="500"/><polyline points="351.95555,357.35556 400,309.31111 448.04445,357.35556"/><polyline points="397.7987,367.76732 400,365.56602 402.2013,367.76732"/><polyline points="333.83415,433.08293 400,366.91707 466.16585,433.08293"/><polyline points="394.94994,435.85836 400,430.8083 405.05006,435.85836"/><polyline points="357.86303,487.73515 400,445.59818 442.13697,487.73515"/></g><g><line x1="400" y1="300" x2="226.79492" y2="400"/><polyline points="326.3064,287.07006 391.93635,304.65555 374.35085,370.2855"/><polyline points="340.21113,331.97728 343.21816,332.78301 342.41243,335.79004"/><polyline points="251.66388,309.24015 342.04812,333.45854 317.82973,423.84278"/><polyline points="279.81817,363.5557 286.71669,365.40415 284.86824,372.30266"/><polyline points="216.34811,357.37589 273.90827,372.79909 258.48507,430.35926"/></g><g><line x1="400" y1="300" x2="226.79492" y2="200"/><polyline points="374.35085,229.7145 391.93635,295.34445 326.3064,312.92994"/><polyline points="342.41243,264.20996 343.21816,267.21699 340.21113,268.02272"/><polyline points="317.82973,176.15722 342.04812,266.54146 251.66388,290.75985"/><polyline points="284.86824,227.69734 286.71669,234.59585 279.81817,236.4443"/><polyline points="258.48507,169.64074 273.90827,227.20091 216.34811,242.62411"/></g><g><line x1="400" y1="300" x2="400" y2="100"/><polyline points="448.04445,242.64444 400,290.68889 351.95555,242.64444"/><polyline points="402.2013,232.23268 400,234.43398 397.7987,232.23268"/><polyline points="466.16585,166.91707 400,233.08293 333.83415,166.91707"/><polyline points="405.05006,164.14164 400,169.1917 394.94994,164.14164"/><polyline points="442.13697,112.26485 400,154.40182 357.86303,112.26485"/></g><g><line x1="400" y1="300" x2="573.20508" y2="200"/><polyline points="473.6936,312.92994 408.06365,295.34445 425.64915,229.7145"/><polyline points="459.78887,268.02272 456.78184,267.21699 457.58757,264.20996"/><polyline points="548.33612,290.75985 457.95188,266.54146 482.17027,176.15722"/><polyline points="520.18183,236.4443 513.28331,234.59585 515.13176,227.69734"/><polyline points="583.65189,242.62411 526.09173,227.20091 541.51493,169.64074"/></g><g><line x1="400" y1="300" x2="573.20508" y2="400"/><polyline points="425.64915,370.2855 408.06365,304.65555 473.6936,287.07006"/><polyline points="457.58757,335.79004 456.78184,332.78301 459.78887,331.97728"/><polyline points="482.17027,423.84278 457.95188,333.45854 548.33612,309.24015"/><polyline points="515.13176,372.30266 513.28331,365.40415 520.18183,363.5557"/><polyline points="541.51493,430.35926 526.09173,372.79909 583.65189,357.37589"/></g></g></g><g fill="none" fill-rule="nonzero" stroke="none" stroke-width="1" stroke-linecap="butt" stroke-linejoin="miter" stroke-miterlimit="10" stroke-dasharray="" stroke-dashoffset="0" font-family="sans-serif" font-weight="normal" font-size="12" text-anchor="start" style="mix-blend-mode: normal"/></svg>