<svg version="1.1" xmlns="http://www.w3.org/2000/svg" xmlns:xlink="http://www.w3.org/1999/xlink" width="800" height="600"><g fill="none" fill-rule="nonzero" stroke="none" stroke-width="1" stroke-linecap="butt" stroke-linejoin="miter" stroke-miterlimit="10" stroke-dasharray="" stroke-dashoffset="0" font-family="none" font-weight="none" font-size="none" text-anchor="none" style="mix-blend-mode: normal"><rect x="0" y="0" width="800" height="600"/></g><g fill="none" fill-rule="nonzero" stroke="#ffffff" stroke-width="8" stroke-linecap="round" stroke-linejoin="miter" stroke-miterlimit="10" stroke-dasharray="" stroke-dashoffset="0" font-family="none" font-weight="none" font-size="none" text-anchor="none" style="mix-blend-mode: normal"><g id="Snowflake"><g><line x1="400" y1="300" x2="400" y2="500"/><polyline points="357.6881,354.48928 400,312.17738 442.3119,354.48928"/><polyline points="336.63046,398.35143 400,334.9819 463.36954,398.35143"/><polyline points="369.54543,415.22729 400,384.77271 430.45457,415.22729"/><polyline points="344.30983,461.17842 400,405.48825 455.69017,461.17842"/><polyline points="390.53469,471.39932 400,461.93401 409.46531,471.39932"/></g><g><line x1="400" y1="300" x2="226.79492" y2="400"/><polyline points="331.65495,290.60146 389.45408,306.08869 373.96685,363.88782"/><polyline points="283.14039,294.29609 369.70479,317.49095 346.50993,404.05535"/><polyline points="284.98296,331.23921 326.58468,342.38636 315.43753,383.98808"/><polyline points="232.57031,332.36011 308.6445,352.74412 288.26048,428.81831"/><polyline points="246.83118,377.50246 259.76103,380.96701 256.29649,393.89686"/></g><g><line x1="400" y1="300" x2="226.79492" y2="200"/><polyline points="373.96685,236.11218 389.45408,293.91131 331.65495,309.39854"/><polyline points="346.50993,195.94465 369.70479,282.50905 283.14039,305.70391"/><polyline points="315.43753,216.01192 326.58468,257.61364 284.98296,268.76079"/><polyline points="288.26048,171.18169 308.6445,247.25588 232.57031,267.63989"/><polyline points="256.29649,206.10314 259.76103,219.03299 246.83118,222.49754"/></g><g><line x1="400" y1="300" x2="400" y2="100"/><polyline points="442.3119,245.51072 400,287.82262 357.6881,245.51072"/><polyline points="463.36954,201.64857 400,265.0181 336.63046,201.64857"/><polyline points="430.45457,184.77271 400,215.22729 369.54543,184.77271"/><polyline points="455.69017,138.82158 400,194.51175 344.30983,138.82158"/><polyline points="409.46531,128.60068 400,138.06599 390.53469,128.60068"/></g><g><line x1="400" y1="300" x2="573.20508" y2="200"/><polyline points="468.34505,309.39854 410.54592,293.91131 426.03315,236.11218"/><polyline points="516.85961,305.70391 430.29521,282.50905 453.49007,195.94465"/><polyline points="515.01704,268.76079 473.41532,257.61364 484.56247,216.01192"/><polyline points="567.42969,267.63989 491.3555,247.25588 511.73952,171.18169"/><polyline points="553.16882,222.49754 540.23897,219.03299 543.70351,206.10314"/></g><g><line x1="400" y1="300" x2="573.20508" y2="400"/><polyline points="426.03315,363.88782 410.54592,306.08869 468.34505,290.60146"/><polyline points="453.49007,404.05535 430.29521,317.49095 516.85961,294.29609"/><polyline points="484.56247,383.98808 473.41532,342.38636 515.01704,331.23921"/><polyline points="511.73952,428.81831 491.3555,352.74412 567.42969,332.36011"/><polyline points="543.70351,393.89686 540.23897,380.96701 553.16882,377.50246"/></g></g></g><g fill="none" fill-rule="nonzero" stroke="none" stroke-width="1" stroke-linecap="butt" stroke-linejoin="miter" stroke-miterlimit="10" stroke-dasharray="" stroke-dashoffset="0" font-family="sans-serif" font-weight="normal" font-size="12" text-anchor="start" style="mix-blend-mode: normal"/></svg>