<svg version="1.1" xmlns="http://www.w3.org/2000/svg" xmlns:xlink="http://www.w3.org/1999/xlink" width="800" height="600"><g fill="none" fill-rule="nonzero" stroke="none" stroke-width="1" stroke-linecap="butt" stroke-linejoin="miter" stroke-miterlimit="10" stroke-dasharray="" stroke-dashoffset="0" font-family="none" font-weight="none" font-size="none" text-anchor="none" style="mix-blend-mode: normal"><rect x="0" y="0" width="800" height="600"/></g><g fill="none" fill-rule="nonzero" stroke="#ffffff" stroke-width="8" stroke-linecap="round" stroke-linejoin="miter" stroke-miterlimit="10" stroke-dasharray="" stroke-dashoffset="0" font-family="none" font-weight="none" font-size="none" text-anchor="none" style="mix-blend-mode: normal"><g id="Snowflake"><g><line x1="400" y1="300" x2="400" y2="500"/><polyline points="355.97671,355.34498 400,311.32169 444.02329,355.34498"/><polyline points="393.60376,369.86479 400,363.46855 406.39624,369.86479"/><polyline points="342.68282,428.65859 400,371.34141 457.31718,428.65859"/><polyline points="363.51664,451.57501 400,415.09165 436.48336,451.57501"/><polyline points="354.80508,489.26413 400,444.06921 445.19492,489.26413"/></g><g><line x1="400" y1="300" x2="226.79492" y2="400"/><polyline points="330.0582,289.5472 390.19513,305.66085 374.08149,365.79777"/><polyline points="336.2972,329.39309 345.03463,331.73427 342.69344,340.4717"/><polyline points="259.9198,314.69116 338.21653,335.6707 317.23698,413.96743"/><polyline points="250.49051,344.19199 300.32771,357.54583 286.97387,407.38303"/><polyline points="213.495,355.49211 275.23241,372.0346 258.68992,433.77201"/></g><g><line x1="400" y1="300" x2="226.79492" y2="200"/><polyline points="374.08149,234.20223 390.19513,294.33915 330.0582,310.4528"/><polyline points="342.69344,259.5283 345.03463,268.26573 336.2972,270.60691"/><polyline points="317.23698,186.03257 338.21653,264.3293 259.9198,285.30884"/><polyline points="286.97387,192.61697 300.32771,242.45417 250.49051,255.80801"/><polyline points="258.68992,166.22799 275.23241,227.9654 213.495,244.50789"/></g><g><line x1="400" y1="300" x2="400" y2="100"/><polyline points="444.02329,244.65502 400,288.67831 355.97671,244.65502"/><polyline points="406.39624,230.13521 400,236.53145 393.60376,230.13521"/><polyline points="457.31718,171.34141 400,228.65859 342.68282,171.34141"/><polyline points="436.48336,148.42499 400,184.90835 363.51664,148.42499"/><polyline points="445.19492,110.73587 400,155.93079 354.80508,110.73587"/></g><g><line x1="400" y1="300" x2="573.20508" y2="200"/><polyline points="469.9418,310.4528 409.80487,294.33915 425.91851,234.20223"/><polyline points="463.7028,270.60691 454.96537,268.26573 457.30656,259.5283"/><polyline points="540.0802,285.30884 461.78347,264.3293 482.76302,186.03257"/><polyline points="549.50949,255.80801 499.67229,242.45417 513.02613,192.61697"/><polyline points="586.505,244.50789 524.76759,227.9654 541.31008,166.22799"/></g><g><line x1="400" y1="300" x2="573.20508" y2="400"/><polyline points="425.91851,365.79777 409.80487,305.66085 469.9418,289.5472"/><polyline points="457.30656,340.4717 454.96537,331.73427 463.7028,329.39309"/><polyline points="482.76302,413.96743 461.78347,335.6707 540.0802,314.69116"/><polyline points="513.02613,407.38303 499.67229,357.54583 549.50949,344.19199"/><polyline points="541.31008,433.77201 524.76759,372.0346 586.505,355.49211"/></g></g></g><g fill="none" fill-rule="nonzero" stroke="none" stroke-width="1" stroke-linecap="butt" stroke-linejoin="miter" stroke-miterlimit="10" stroke-dasharray="" stroke-dashoffset="0" font-family="sans-serif" font-weight="normal" font-size="12" text-anchor="start" style="mix-blend-mode: normal"/></svg>