<svg version="1.1" xmlns="http://www.w3.org/2000/svg" xmlns:xlink="http://www.w3.org/1999/xlink" width="800" height="600"><g fill="none" fill-rule="nonzero" stroke="none" stroke-width="1" stroke-linecap="butt" stroke-linejoin="miter" stroke-miterlimit="10" stroke-dasharray="" stroke-dashoffset="0" font-family="none" font-weight="none" font-size="none" text-anchor="none" style="mix-blend-mode: normal"><rect x="0" y="0" width="800" height="600"/></g><g fill="none" fill-rule="nonzero" stroke="#ffffff" stroke-width="8" stroke-linecap="round" stroke-linejoin="miter" stroke-miterlimit="10" stroke-dasharray="" stroke-dashoffset="0" font-family="none" font-weight="none" font-size="none" text-anchor="none" style="mix-blend-mode: normal"><g id="Snowflake"><g><line x1="400" y1="300" x2="400" y2="500"/><polyline points="370.4043,348.13118 400,318.53548 429.5957,348.13118"/><polyline points="365.08557,384.12388 400,349.20945 434.91443,384.12388"/><polyline points="345.65257,427.17371 400,372.82629 454.34743,427.17371"/><polyline points="360.48196,453.09235 400,413.57432 439.51804,453.09235"/><polyline points="337.14739,498.09297 400,435.24036 462.85261,498.09297"/></g><g><line x1="400" y1="300" x2="226.79492" y2="400"/><polyline points="343.51932,298.43496 383.9478,309.26774 373.11502,349.69622"/><polyline points="309.68937,311.82516 357.38336,324.60473 344.6038,372.29872"/><polyline points="262.69062,316.5206 336.93059,336.41314 317.03805,410.65311"/><polyline points="247.65912,342.32255 301.64176,356.78716 287.17715,410.7698"/><polyline points="197.02015,344.61453 282.87841,367.62018 259.87276,453.47844"/></g><g><line x1="400" y1="300" x2="226.79492" y2="200"/><polyline points="373.11502,250.30378 383.9478,290.73226 343.51932,301.56504"/><polyline points="344.6038,227.70128 357.38336,275.39527 309.68937,288.17484"/><polyline points="317.03805,189.34689 336.93059,263.58686 262.69062,283.4794"/><polyline points="287.17715,189.2302 301.64176,243.21284 247.65912,257.67745"/><polyline points="259.87276,146.52156 282.87841,232.37982 197.02015,255.38547"/></g><g><line x1="400" y1="300" x2="400" y2="100"/><polyline points="429.5957,251.86882 400,281.46452 370.4043,251.86882"/><polyline points="434.91443,215.87612 400,250.79055 365.08557,215.87612"/><polyline points="454.34743,172.82629 400,227.17371 345.65257,172.82629"/><polyline points="439.51804,146.90765 400,186.42568 360.48196,146.90765"/><polyline points="462.85261,101.90703 400,164.75964 337.14739,101.90703"/></g><g><line x1="400" y1="300" x2="573.20508" y2="200"/><polyline points="456.48068,301.56504 416.0522,290.73226 426.88498,250.30378"/><polyline points="490.31063,288.17484 442.61664,275.39527 455.3962,227.70128"/><polyline points="537.30938,283.4794 463.06941,263.58686 482.96195,189.34689"/><polyline points="552.34088,257.67745 498.35824,243.21284 512.82285,189.2302"/><polyline points="602.97985,255.38547 517.12159,232.37982 540.12724,146.52156"/></g><g><line x1="400" y1="300" x2="573.20508" y2="400"/><polyline points="426.88498,349.69622 416.0522,309.26774 456.48068,298.43496"/><polyline points="455.3962,372.29872 442.61664,324.60473 490.31063,311.82516"/><polyline points="482.96195,410.65311 463.06941,336.41314 537.30938,316.5206"/><polyline points="512.82285,410.7698 498.35824,356.78716 552.34088,342.32255"/><polyline points="540.12724,453.47844 517.12159,367.62018 602.97985,344.61453"/></g></g></g><g fill="none" fill-rule="nonzero" stroke="none" stroke-width="1" stroke-linecap="butt" stroke-linejoin="miter" stroke-miterlimit="10" stroke-dasharray="" stroke-dashoffset="0" font-family="sans-serif" font-weight="normal" font-size="12" text-anchor="start" style="mix-blend-mode: normal"/></svg>