<svg version="1.1" xmlns="http://www.w3.org/2000/svg" xmlns:xlink="http://www.w3.org/1999/xlink" width="800" height="600"><g fill="#181919" fill-rule="nonzero" stroke="none" stroke-width="1" stroke-linecap="butt" stroke-linejoin="miter" stroke-miterlimit="10" stroke-dasharray="" stroke-dashoffset="0" font-family="none" font-weight="none" font-size="none" text-anchor="none" style="mix-blend-mode: normal"><rect x="0" y="0" width="800" height="600"/></g><g fill="none" fill-rule="nonzero" stroke="#ffffff" stroke-width="8" stroke-linecap="round" stroke-linejoin="miter" stroke-miterlimit="10" stroke-dasharray="" stroke-dashoffset="0" font-family="none" font-weight="none" font-size="none" text-anchor="none" style="mix-blend-mode: normal"><g id="Snowflake"><g><line x1="400" y1="300" x2="400" y2="500"/><polyline points="362.805,351.93084 400,314.73583 437.195,351.93084"/><polyline points="366.47938,383.42697 400,349.90636 433.52062,383.42697"/><polyline points="362.64324,418.67838 400,381.32162 437.35676,418.67838"/><polyline points="360.18179,453.24244 400,413.42423 439.81821,453.24244"/><polyline points="340.88136,496.22598 400,437.10735 459.11864,496.22598"/></g><g><line x1="400" y1="300" x2="226.79492" y2="400"/><polyline points="336.42907,293.7536 387.2384,307.36792 373.62408,358.17724"/><polyline points="310.98981,312.68378 356.77983,324.95318 344.51043,370.74319"/><polyline points="278.54313,326.98729 329.57341,340.66081 315.89989,391.6911"/><polyline points="247.37905,342.13764 301.77174,356.71211 287.19726,411.1048"/><polyline points="200.50399,346.91475 281.26155,368.55367 259.62263,449.31123"/></g><g><line x1="400" y1="300" x2="226.79492" y2="200"/><polyline points="373.62408,241.82276 387.2384,292.63208 336.42907,306.2464"/><polyline points="344.51043,229.25681 356.77983,275.04682 310.98981,287.31622"/><polyline points="315.89989,208.3089 329.57341,259.33919 278.54313,273.01271"/><polyline points="287.19726,188.8952 301.77174,243.28789 247.37905,257.86236"/><polyline points="259.62263,150.68877 281.26155,231.44633 200.50399,253.08525"/></g><g><line x1="400" y1="300" x2="400" y2="100"/><polyline points="437.195,248.06916 400,285.26417 362.805,248.06916"/><polyline points="433.52062,216.57303 400,250.09364 366.47938,216.57303"/><polyline points="437.35676,181.32162 400,218.67838 362.64324,181.32162"/><polyline points="439.81821,146.75756 400,186.57577 360.18179,146.75756"/><polyline points="459.11864,103.77402 400,162.89265 340.88136,103.77402"/></g><g><line x1="400" y1="300" x2="573.20508" y2="200"/><polyline points="463.57093,306.2464 412.7616,292.63208 426.37592,241.82276"/><polyline points="489.01019,287.31622 443.22017,275.04682 455.48957,229.25681"/><polyline points="521.45687,273.01271 470.42659,259.33919 484.10011,208.3089"/><polyline points="552.62095,257.86236 498.22826,243.28789 512.80274,188.8952"/><polyline points="599.49601,253.08525 518.73845,231.44633 540.37737,150.68877"/></g><g><line x1="400" y1="300" x2="573.20508" y2="400"/><polyline points="426.37592,358.17724 412.7616,307.36792 463.57093,293.7536"/><polyline points="455.48957,370.74319 443.22017,324.95318 489.01019,312.68378"/><polyline points="484.10011,391.6911 470.42659,340.66081 521.45687,326.98729"/><polyline points="512.80274,411.1048 498.22826,356.71211 552.62095,342.13764"/><polyline points="540.37737,449.31123 518.73845,368.55367 599.49601,346.91475"/></g></g></g><g fill="none" fill-rule="nonzero" stroke="none" stroke-width="1" stroke-linecap="butt" stroke-linejoin="miter" stroke-miterlimit="10" stroke-dasharray="" stroke-dashoffset="0" font-family="sans-serif" font-weight="normal" font-size="12" text-anchor="start" style="mix-blend-mode: normal"/></svg>