<svg version="1.1" xmlns="http://www.w3.org/2000/svg" xmlns:xlink="http://www.w3.org/1999/xlink" width="800" height="600"><g fill="none" fill-rule="nonzero" stroke="none" stroke-width="1" stroke-linecap="butt" stroke-linejoin="miter" stroke-miterlimit="10" stroke-dasharray="" stroke-dashoffset="0" font-family="none" font-weight="none" font-size="none" text-anchor="none" style="mix-blend-mode: normal"><rect x="0" y="0" width="800" height="600"/></g><g fill="none" fill-rule="nonzero" stroke="#ffffff" stroke-width="8" stroke-linecap="round" stroke-linejoin="miter" stroke-miterlimit="10" stroke-dasharray="" stroke-dashoffset="0" font-family="none" font-weight="none" font-size="none" text-anchor="none" style="mix-blend-mode: normal"><g id="Snowflake"><g><line x1="400" y1="300" x2="400" y2="500"/><polyline points="339.76898,363.44884 400,303.21783 460.23102,363.44884"/><polyline points="353.00766,390.16283 400,343.1705 446.99234,390.16283"/><polyline points="386.09012,406.95494 400,393.04506 413.90988,406.95494"/><polyline points="349.90553,458.38057 400,408.2861 450.09447,458.38057"/><polyline points="340.27001,496.53166 400,436.80167 459.72999,496.53166"/></g><g><line x1="400" y1="300" x2="226.79492" y2="400"/><polyline points="314.93618,279.56283 397.21328,301.60891 375.1672,383.88601"/><polyline points="298.42053,304.38486 362.61325,321.58525 345.41286,385.77797"/><polyline points="300.41937,341.43116 319.42061,346.52253 314.32924,365.52377"/><polyline points="237.79117,335.8072 306.22149,354.14305 287.88564,422.57337"/><polyline points="199.93359,346.53814 281.52628,368.40084 259.66358,449.99352"/></g><g><line x1="400" y1="300" x2="226.79492" y2="200"/><polyline points="375.1672,216.11399 397.21328,298.39109 314.93618,320.43717"/><polyline points="345.41286,214.22203 362.61325,278.41475 298.42053,295.61514"/><polyline points="314.32924,234.47623 319.42061,253.47747 300.41937,258.56884"/><polyline points="287.88564,177.42663 306.22149,245.85695 237.79117,264.1928"/><polyline points="259.66358,150.00648 281.52628,231.59916 199.93359,253.46186"/></g><g><line x1="400" y1="300" x2="400" y2="100"/><polyline points="460.23102,236.55116 400,296.78217 339.76898,236.55116"/><polyline points="446.99234,209.83717 400,256.8295 353.00766,209.83717"/><polyline points="413.90988,193.04506 400,206.95494 386.09012,193.04506"/><polyline points="450.09447,141.61943 400,191.7139 349.90553,141.61943"/><polyline points="459.72999,103.46834 400,163.19833 340.27001,103.46834"/></g><g><line x1="400" y1="300" x2="573.20508" y2="200"/><polyline points="485.06382,320.43717 402.78672,298.39109 424.8328,216.11399"/><polyline points="501.57947,295.61514 437.38675,278.41475 454.58714,214.22203"/><polyline points="499.58063,258.56884 480.57939,253.47747 485.67076,234.47623"/><polyline points="562.20883,264.1928 493.77851,245.85695 512.11436,177.42663"/><polyline points="600.06641,253.46186 518.47372,231.59916 540.33642,150.00648"/></g><g><line x1="400" y1="300" x2="573.20508" y2="400"/><polyline points="424.8328,383.88601 402.78672,301.60891 485.06382,279.56283"/><polyline points="454.58714,385.77797 437.38675,321.58525 501.57947,304.38486"/><polyline points="485.67076,365.52377 480.57939,346.52253 499.58063,341.43116"/><polyline points="512.11436,422.57337 493.77851,354.14305 562.20883,335.8072"/><polyline points="540.33642,449.99352 518.47372,368.40084 600.06641,346.53814"/></g></g></g><g fill="none" fill-rule="nonzero" stroke="none" stroke-width="1" stroke-linecap="butt" stroke-linejoin="miter" stroke-miterlimit="10" stroke-dasharray="" stroke-dashoffset="0" font-family="sans-serif" font-weight="normal" font-size="12" text-anchor="start" style="mix-blend-mode: normal"/></svg>