<svg version="1.1" xmlns="http://www.w3.org/2000/svg" xmlns:xlink="http://www.w3.org/1999/xlink" width="800" height="600"><g fill="none" fill-rule="nonzero" stroke="none" stroke-width="1" stroke-linecap="butt" stroke-linejoin="miter" stroke-miterlimit="10" stroke-dasharray="" stroke-dashoffset="0" font-family="none" font-weight="none" font-size="none" text-anchor="none" style="mix-blend-mode: normal"><rect x="0" y="0" width="800" height="600"/></g><g fill="none" fill-rule="nonzero" stroke="#ffffff" stroke-width="8" stroke-linecap="round" stroke-linejoin="miter" stroke-miterlimit="10" stroke-dasharray="" stroke-dashoffset="0" font-family="none" font-weight="none" font-size="none" text-anchor="none" style="mix-blend-mode: normal"><g id="Snowflake"><g><line x1="400" y1="300" x2="400" y2="500"/><polyline points="369.15679,348.75494 400,317.91173 430.84321,348.75494"/><polyline points="350.82578,391.25378 400,342.07955 449.17422,391.25378"/><polyline points="362.73433,418.63283 400,381.36717 437.26567,418.63283"/><polyline points="350.12309,458.27179 400,408.39488 449.87691,458.27179"/><polyline points="373.2941,480.01962 400,453.31371 426.7059,480.01962"/></g><g><line x1="400" y1="300" x2="226.79492" y2="400"/><polyline points="342.35538,297.66647 384.48799,308.95586 373.19859,351.08847"/><polyline points="296.3848,303.04076 363.55804,321.03978 345.55902,388.21302"/><polyline points="278.62812,327.0434 329.53397,340.68358 315.89379,391.58943"/><polyline points="237.99416,335.94122 306.12728,354.19744 287.87107,422.33056"/><polyline points="230.74549,366.88182 267.22643,376.65686 257.45139,413.1378"/></g><g><line x1="400" y1="300" x2="226.79492" y2="200"/><polyline points="373.19859,248.91153 384.48799,291.04414 342.35538,302.33353"/><polyline points="345.55902,211.78698 363.55804,278.96022 296.3848,296.95924"/><polyline points="315.89379,208.41057 329.53397,259.31642 278.62812,272.9566"/><polyline points="287.87107,177.66944 306.12728,245.80256 237.99416,264.05878"/><polyline points="257.45139,186.8622 267.22643,223.34314 230.74549,233.11818"/></g><g><line x1="400" y1="300" x2="400" y2="100"/><polyline points="430.84321,251.24506 400,282.08827 369.15679,251.24506"/><polyline points="449.17422,208.74622 400,257.92045 350.82578,208.74622"/><polyline points="437.26567,181.36717 400,218.63283 362.73433,181.36717"/><polyline points="449.87691,141.72821 400,191.60512 350.12309,141.72821"/><polyline points="426.7059,119.98038 400,146.68629 373.2941,119.98038"/></g><g><line x1="400" y1="300" x2="573.20508" y2="200"/><polyline points="457.64462,302.33353 415.51201,291.04414 426.80141,248.91153"/><polyline points="503.6152,296.95924 436.44196,278.96022 454.44098,211.78698"/><polyline points="521.37188,272.9566 470.46603,259.31642 484.10621,208.41057"/><polyline points="562.00584,264.05878 493.87272,245.80256 512.12893,177.66944"/><polyline points="569.25451,233.11818 532.77357,223.34314 542.54861,186.8622"/></g><g><line x1="400" y1="300" x2="573.20508" y2="400"/><polyline points="426.80141,351.08847 415.51201,308.95586 457.64462,297.66647"/><polyline points="454.44098,388.21302 436.44196,321.03978 503.6152,303.04076"/><polyline points="484.10621,391.58943 470.46603,340.68358 521.37188,327.0434"/><polyline points="512.12893,422.33056 493.87272,354.19744 562.00584,335.94122"/><polyline points="542.54861,413.1378 532.77357,376.65686 569.25451,366.88182"/></g></g></g><g fill="none" fill-rule="nonzero" stroke="none" stroke-width="1" stroke-linecap="butt" stroke-linejoin="miter" stroke-miterlimit="10" stroke-dasharray="" stroke-dashoffset="0" font-family="sans-serif" font-weight="normal" font-size="12" text-anchor="start" style="mix-blend-mode: normal"/></svg>