<svg version="1.1" xmlns="http://www.w3.org/2000/svg" xmlns:xlink="http://www.w3.org/1999/xlink" width="800" height="600"><g fill="#181919" fill-rule="nonzero" stroke="none" stroke-width="1" stroke-linecap="butt" stroke-linejoin="miter" stroke-miterlimit="10" stroke-dasharray="" stroke-dashoffset="0" font-family="none" font-weight="none" font-size="none" text-anchor="none" style="mix-blend-mode: normal"><rect x="0" y="0" width="800" height="600"/></g><g fill="none" fill-rule="nonzero" stroke="#ffffff" stroke-width="12" stroke-linecap="round" stroke-linejoin="miter" stroke-miterlimit="10" stroke-dasharray="" stroke-dashoffset="0" font-family="none" font-weight="none" font-size="none" text-anchor="none" style="mix-blend-mode: normal"><g id="Snowflake"><g><line x1="400" y1="300" x2="400" y2="500"/><polyline points="345.62704,367.18648 400,312.81352 454.37296,367.18648"/><polyline points="358.36775,400.81612 400,359.18388 441.63225,400.81612"/><polyline points="365.41391,437.29304 400,402.70696 434.58609,437.29304"/><polyline points="389.54251,465.22874 400,454.77126 410.45749,465.22874"/></g><g><line x1="400" y1="300" x2="226.79492" y2="400"/><polyline points="314.62832,286.50488 388.90317,306.40676 369.00128,380.6816"/><polyline points="291.87455,314.35348 348.74526,329.59194 333.5068,386.46265"/><polyline points="263.80769,338.69409 311.05317,351.35348 298.39378,398.59895"/><polyline points="251.67897,373.55792 265.96416,377.38563 262.13645,391.67082"/></g><g><line x1="400" y1="300" x2="226.79492" y2="200"/><polyline points="369.00128,219.3184 388.90317,293.59324 314.62832,313.49512"/><polyline points="333.5068,213.53735 348.74526,270.40806 291.87455,285.64652"/><polyline points="298.39378,201.40105 311.05317,248.64652 263.80769,261.30591"/><polyline points="262.13645,208.32918 265.96416,222.61437 251.67897,226.44208"/></g><g><line x1="400" y1="300" x2="400" y2="100"/><polyline points="454.37296,232.81352 400,287.18648 345.62704,232.81352"/><polyline points="441.63225,199.18388 400,240.81612 358.36775,199.18388"/><polyline points="434.58609,162.70696 400,197.29304 365.41391,162.70696"/><polyline points="410.45749,134.77126 400,145.22874 389.54251,134.77126"/></g><g><line x1="400" y1="300" x2="573.20508" y2="200"/><polyline points="485.37168,313.49512 411.09683,293.59324 430.99872,219.3184"/><polyline points="508.12545,285.64652 451.25474,270.40806 466.4932,213.53735"/><polyline points="536.19231,261.30591 488.94683,248.64652 501.60622,201.40105"/><polyline points="548.32103,226.44208 534.03584,222.61437 537.86355,208.32918"/></g><g><line x1="400" y1="300" x2="573.20508" y2="400"/><polyline points="430.99872,380.6816 411.09683,306.40676 485.37168,286.50488"/><polyline points="466.4932,386.46265 451.25474,329.59194 508.12545,314.35348"/><polyline points="501.60622,398.59895 488.94683,351.35348 536.19231,338.69409"/><polyline points="537.86355,391.67082 534.03584,377.38563 548.32103,373.55792"/></g></g></g><g fill="none" fill-rule="nonzero" stroke="none" stroke-width="1" stroke-linecap="butt" stroke-linejoin="miter" stroke-miterlimit="10" stroke-dasharray="" stroke-dashoffset="0" font-family="sans-serif" font-weight="normal" font-size="12" text-anchor="start" style="mix-blend-mode: normal"/></svg>